<?xml version="1.0" encoding="UTF-8"?><svg id="Layer_2" xmlns="http://www.w3.org/2000/svg" viewBox="0 0 81.5 80.87"><defs><style>.cls-1{fill:#58595b;}</style></defs><g id="icon"><path class="cls-1" d="M67.26,33.01c-.26-.14-.56-.17-.84-.08l-15.49,4.99c-.49.16-.8.65-.73,1.16.06.44.1.9.1,1.35,0,2.48-.96,4.82-2.7,6.6-.36.37-.41.95-.1,1.37l9.57,13.07c.17.24.44.39.73.43.04,0,.09,0,.13,0,.25,0,.49-.09.68-.24,8.17-6.76,11.77-17.74,9.17-27.99-.07-.28-.26-.53-.52-.67ZM58.11,59.29l-8.38-11.44c1.75-2.08,2.7-4.68,2.7-7.41,0-.25,0-.5-.03-.76l13.56-4.37c1.81,8.76-1.2,17.96-7.86,23.98Z"/><path class="cls-1" d="M15.55,31.54l15.48,4.99c.11.03.22.05.33.05.38,0,.75-.21.94-.56,1.38-2.59,3.93-4.43,6.83-4.92.51-.09.88-.53.88-1.05V13.9c0-.29-.12-.58-.34-.78-.21-.2-.51-.3-.8-.28-4.27.28-8.32,1.51-12.05,3.64-5.46,3.13-9.59,7.85-11.93,13.65-.11.27-.1.58.02.85.12.27.36.47.64.56ZM27.88,18.33c3.11-1.78,6.47-2.88,10-3.27v14.13c-2.88.73-5.41,2.55-7.01,5.06l-13.56-4.37c2.22-4.87,5.85-8.85,10.56-11.55Z"/><path class="cls-1" d="M33.9,47.03c-1.74-1.78-2.7-4.12-2.7-6.6,0-.45.03-.9.1-1.35.07-.51-.23-1-.73-1.16l-15.48-4.99c-.28-.09-.58-.06-.84.08-.26.14-.44.38-.52.67-1.78,7.01-.75,14.32,2.89,20.58,1.65,2.83,3.76,5.33,6.27,7.4.19.16.43.25.68.25.04,0,.09,0,.13,0,.29-.04.55-.19.73-.43l9.57-13.07c.31-.42.27-1-.1-1.37ZM23.39,59.29c-1.94-1.76-3.6-3.81-4.93-6.1-3.17-5.45-4.19-11.76-2.92-17.89l13.56,4.37c-.02.25-.02.5-.02.75,0,2.73.95,5.33,2.7,7.41l-8.38,11.44Z"/><path class="cls-1" d="M46.29,49.26c-.3-.42-.86-.55-1.32-.33-2.64,1.29-5.81,1.29-8.44,0-.46-.23-1.02-.09-1.32.33l-9.57,13.07c-.17.24-.24.54-.19.83.06.29.23.54.48.7,4.54,2.82,9.68,4.24,14.82,4.24,4.8,0,9.6-1.23,13.93-3.71.3-.17.59-.35.89-.53.25-.16.43-.41.48-.7.06-.29-.01-.59-.19-.83l-9.57-13.06ZM28.04,62.64l8.37-11.43c2.75,1.09,5.92,1.1,8.67,0l8.37,11.43c-7.91,4.46-17.53,4.44-25.41,0Z"/><path class="cls-1" d="M34.83,38.52c-.51,1.57-.38,3.24.37,4.71.75,1.48,2.04,2.58,3.63,3.09.64.21,1.28.3,1.92.3,2.62,0,5.07-1.66,5.93-4.27.51-1.57.38-3.24-.36-4.71-.75-1.48-2.05-2.58-3.63-3.09-3.26-1.05-6.78.73-7.84,3.97ZM36.85,39.18c.56-1.72,2.17-2.81,3.9-2.81.42,0,.85.06,1.27.2,1.05.34,1.9,1.06,2.39,2.03.49.96.58,2.06.24,3.08-.7,2.13-3.02,3.31-5.17,2.61-1.05-.34-1.9-1.06-2.39-2.03-.49-.96-.57-2.06-.24-3.08Z"/><path class="cls-1" d="M79.73,37.44l-3.24-.27c-.08-.92-.21-1.85-.36-2.76l3.05-1.09c.95-.34,1.49-1.29,1.24-2.21l-.62-2.28c-.25-.92-1.18-1.47-2.17-1.29l-3.2.57c-.32-.87-.68-1.73-1.08-2.58l2.66-1.83c.83-.57,1.1-1.63.62-2.45l-1.19-2.05c-.47-.82-1.52-1.11-2.43-.69l-2.95,1.38c-.54-.76-1.11-1.5-1.71-2.21l2.09-2.46c.66-.77.64-1.86-.04-2.53l-1.69-1.67c-.67-.67-1.76-.68-2.53-.04l-2.49,2.09c-.72-.6-1.47-1.17-2.24-1.7l1.38-2.91c.43-.91.14-1.96-.69-2.43l-2.07-1.18c-.82-.47-1.87-.2-2.45.62l-1.85,2.65c-.86-.39-1.73-.75-2.61-1.07l.57-3.16c.18-.99-.38-1.93-1.3-2.17l-2.3-.61c-.92-.24-1.87.28-2.21,1.23l-1.1,3.03c-.93-.16-1.87-.28-2.8-.36l-.27-3.21c-.08-1-.87-1.76-1.82-1.76h-2.38c-.95,0-1.73.76-1.82,1.76l-.27,3.21c-.94.08-1.87.21-2.8.36l-1.1-3.03c-.34-.94-1.29-1.47-2.21-1.23l-2.3.61c-.92.25-1.48,1.18-1.3,2.17l.57,3.16c-.88.32-1.76.68-2.61,1.07l-1.85-2.65c-.58-.82-1.63-1.09-2.45-.62l-2.06,1.18c-.83.47-1.12,1.52-.69,2.43l1.38,2.91c-.77.54-1.51,1.11-2.23,1.7l-2.49-2.09c-.77-.65-1.86-.63-2.53.04l-1.69,1.67c-.68.67-.69,1.76-.04,2.53l2.09,2.46c-.6.72-1.17,1.46-1.71,2.21l-2.95-1.38c-.91-.42-1.96-.13-2.43.69l-1.19,2.05c-.48.82-.21,1.88.62,2.45l2.66,1.83c-.39.84-.75,1.71-1.08,2.58l-3.2-.57c-.99-.18-1.93.38-2.18,1.29l-.62,2.28c-.25.92.28,1.87,1.24,2.21l3.05,1.09c-.16.91-.28,1.84-.36,2.76l-3.24.27c-1.01.08-1.77.86-1.77,1.81v2.36c0,.95.76,1.73,1.77,1.81l3.24.27c.08.92.21,1.85.36,2.76l-3.05,1.09c-.95.34-1.48,1.29-1.24,2.21l.62,2.29c.25.91,1.18,1.46,2.17,1.29l3.2-.57c.32.87.68,1.73,1.08,2.58l-2.66,1.83c-.83.58-1.1,1.63-.62,2.46l1.19,2.05c.48.82,1.52,1.11,2.43.69l2.95-1.38c.54.76,1.11,1.5,1.71,2.21l-2.09,2.46c-.66.77-.64,1.86.04,2.53l1.68,1.67c.67.66,1.76.68,2.53.04l2.49-2.09c.72.6,1.47,1.17,2.23,1.7l-1.38,2.91c-.43.91-.14,1.96.69,2.44l2.07,1.18c.82.47,1.87.2,2.45-.62l1.85-2.65c.86.39,1.73.75,2.61,1.08l-.57,3.16c-.18.99.38,1.92,1.3,2.17l2.3.61c.92.25,1.87-.28,2.21-1.23l1.1-3.03c.93.16,1.86.28,2.8.36l.27,3.21c.08,1,.87,1.76,1.82,1.76h2.38c.95,0,1.73-.76,1.82-1.76l.27-3.21c.94-.08,1.88-.21,2.8-.36l1.1,3.03c.34.94,1.29,1.47,2.21,1.23l2.3-.61c.92-.25,1.48-1.18,1.3-2.17l-.57-3.16c.88-.32,1.75-.68,2.61-1.07l1.85,2.65c.58.82,1.63,1.08,2.45.62l2.06-1.18c.83-.47,1.12-1.52.69-2.43l-1.38-2.91c.76-.54,1.51-1.11,2.23-1.7l2.49,2.09c.77.64,1.85.63,2.53-.04l1.69-1.67c.68-.67.69-1.76.04-2.53l-2.09-2.46c.6-.72,1.17-1.46,1.71-2.21l2.95,1.38c.91.43,1.96.13,2.43-.69l1.19-2.05c.48-.82.21-1.88-.62-2.45l-2.66-1.83c.39-.85.75-1.71,1.08-2.58l3.2.57c.98.17,1.93-.38,2.17-1.29l.62-2.28c.25-.92-.28-1.87-1.24-2.21l-3.05-1.09c.16-.92.28-1.84.36-2.76l3.24-.27c1.01-.08,1.77-.86,1.77-1.81v-2.36c0-.95-.76-1.73-1.77-1.81ZM79.37,41.32l-3.96.33c-.52.04-.94.46-.97.99-.09,1.43-.28,2.88-.57,4.31-.1.52.19,1.03.69,1.21l3.73,1.33-.46,1.72-3.91-.7c-.51-.09-1.02.21-1.19.7-.47,1.36-1.03,2.71-1.68,4.01-.24.47-.09,1.05.35,1.35l3.25,2.24-.9,1.55-3.6-1.68c-.48-.22-1.04-.06-1.33.37-.81,1.2-1.7,2.35-2.67,3.44-.35.4-.36.99-.01,1.39l2.56,3-1.27,1.27-3.04-2.55c-.4-.34-.99-.33-1.38.01-1.1.96-2.27,1.85-3.47,2.65-.44.29-.6.86-.37,1.34l1.69,3.56-1.57.9-2.27-3.24c-.3-.43-.87-.58-1.34-.34-1.31.64-2.67,1.2-4.04,1.66-.5.17-.8.68-.71,1.2l.7,3.86-1.75.47-1.34-3.7c-.18-.49-.7-.79-1.2-.68-1.43.28-2.89.47-4.34.56-.53.03-.95.45-.99.97l-.33,3.92h-1.81l-.33-3.92c-.04-.52-.47-.94-.99-.97-1.46-.09-2.92-.28-4.34-.56-.51-.1-1.02.19-1.2.68l-1.34,3.7-1.75-.46.7-3.86c.09-.52-.21-1.03-.71-1.2-1.38-.46-2.74-1.02-4.05-1.67-.47-.23-1.04-.08-1.34.35l-2.27,3.23-1.57-.9,1.69-3.56c.23-.48.07-1.05-.37-1.34-1.21-.8-2.37-1.69-3.47-2.65-.4-.34-.98-.35-1.38-.01l-3.04,2.55-1.28-1.27,2.56-3c.34-.4.34-1-.01-1.39-.96-1.08-1.86-2.24-2.67-3.44-.29-.43-.86-.59-1.33-.37l-3.6,1.68-.9-1.55,3.25-2.24c.44-.3.58-.87.35-1.35-.64-1.29-1.21-2.64-1.68-4.01-.17-.5-.68-.79-1.19-.7l-3.91.7-.46-1.72,3.73-1.33c.5-.18.79-.69.69-1.21-.28-1.42-.47-2.87-.57-4.31-.03-.53-.45-.95-.97-.99l-3.96-.33v-1.78l3.96-.33c.52-.04.94-.46.97-.99.09-1.44.29-2.89.57-4.31.1-.52-.19-1.03-.69-1.21l-3.73-1.33.46-1.72,3.91.7c.52.1,1.02-.21,1.19-.7.47-1.37,1.03-2.72,1.68-4.01.24-.47.09-1.05-.35-1.35l-3.25-2.24.9-1.55,3.6,1.68c.47.22,1.04.06,1.33-.37.81-1.19,1.7-2.35,2.67-3.44.35-.4.36-.99.01-1.39l-2.56-3,1.28-1.27,3.04,2.55c.4.34.99.33,1.38-.01,1.09-.95,2.26-1.84,3.47-2.65.44-.29.6-.86.37-1.34l-1.69-3.56,1.57-.9,2.27,3.23c.3.43.87.57,1.34.34,1.31-.64,2.67-1.2,4.05-1.66.5-.17.8-.68.71-1.2l-.7-3.86,1.75-.46,1.34,3.7c.18.49.69.78,1.2.68,1.43-.28,2.89-.47,4.34-.56.53-.03.95-.45.99-.97l.33-3.92h1.81l.33,3.92c.04.52.47.94.99.97,1.45.09,2.91.28,4.34.56.51.1,1.02-.19,1.2-.68l1.34-3.7,1.75.47-.7,3.86c-.09.52.21,1.03.71,1.2,1.38.46,2.74,1.02,4.05,1.66.47.23,1.04.08,1.34-.34l2.27-3.23,1.57.9-1.69,3.56c-.23.48-.07,1.05.37,1.34,1.21.8,2.38,1.69,3.47,2.65.39.34.98.35,1.38.01l3.04-2.55,1.28,1.27-2.56,3c-.34.4-.34,1,.01,1.39.96,1.09,1.86,2.25,2.67,3.44.29.43.85.59,1.33.37l3.6-1.68.9,1.55-3.25,2.24c-.44.3-.58.87-.35,1.35.65,1.3,1.21,2.65,1.68,4.01.17.5.68.79,1.19.7l3.91-.7.46,1.72-3.73,1.33c-.5.18-.79.69-.69,1.21.28,1.41.47,2.86.57,4.31.03.52.45.95.97.99l3.96.33v1.78Z"/><path class="cls-1" d="M42.38,31.1c2.9.49,5.45,2.33,6.83,4.92.19.35.55.56.94.56.11,0,.22-.02.33-.05l15.48-4.99c.28-.09.51-.29.64-.56.12-.27.13-.58.02-.85-.49-1.21-1.07-2.4-1.73-3.53-4.65-7.99-12.97-13.13-22.25-13.76-.31-.02-.58.08-.8.28-.21.2-.34.48-.34.78v16.15c0,.52.37.96.89,1.05ZM43.62,15.07c8.12.91,15.32,5.56,19.42,12.61.42.71.8,1.45,1.14,2.2l-13.56,4.37c-1.6-2.5-4.13-4.33-7.01-5.05v-14.13Z"/></g></svg>