<?xml version="1.0" encoding="UTF-8"?><svg id="Layer_2" xmlns="http://www.w3.org/2000/svg" viewBox="0 0 227.83 232.01"><defs><style>.cls-1{fill:#fff;}.cls-2{fill:#ffce76;}.cls-3{fill:#36d7be;}.cls-4{fill:#ffc5c5;}.cls-5{fill:#36bfe3;}.cls-6{fill:#202b59;}.cls-7{fill:#ff88c4;}</style></defs><g id="_Layer_"><path class="cls-3" d="M29.6,126.61c-2.85-1.1-5.45-2.7-7.71-4.75-.43-.39-1,.16-.81.61-.21.14-.21.41-.19.65.04.43.11.85.16,1.28.1.79.24,1.58.37,2.37.27,1.64.54,3.28.81,4.91.07.41.47.64.84.41,2.3-1.37,4.49-2.89,6.6-4.53.3-.23.35-.78-.07-.94ZM21.86,123.85c-.02-.1-.07-.46-.15-.79,1.96,1.71,4.18,3.11,6.57,4.15-1.66,1.24-3.37,2.41-5.13,3.52-.27-1.47-.54-2.94-.81-4.41-.15-.83-.31-1.65-.49-2.47Z"/><path class="cls-2" d="M157.74,23.58c-.36-1.1-.72-2.19-1.08-3.29-.27-.82-.46-2.02-1.32-2.44-.41-.2-.87-.17-1.31-.08-.54.11-1.08.25-1.62.38-.57.14-1.14.27-1.7.41-.28.07-.57.13-.85.2-.29.07-.48.19-.72.36-.17.12-.17.3-.07.39.16,1.19.31,2.37.47,3.56.11.83.13,1.96,1.07,2.31.42.16.88.08,1.31,0,.61-.13,1.22-.28,1.84-.42,1.25-.29,2.49-.57,3.74-.87.21-.05.32-.32.25-.51ZM152.6,24.51c-.48.12-1.01.33-1.51.31-.5-.02-.7-.4-.8-.84-.11-.49-.17-.99-.24-1.49-.15-.96-.3-1.92-.45-2.87.53-.04.77-.12,1.01-.18.49-.12.98-.24,1.47-.36l1.47-.36c.41-.1.98-.33,1.41-.17.36.13.49.56.6.89.16.46.31.93.46,1.4.28.86.57,1.72.85,2.58-.9.23-1.8.46-2.7.69-.52.13-1.03.27-1.55.4Z"/><path class="cls-7" d="M18.75,110.14c-.9-.98-2.3-1.25-3.5-.67-1.38.68-2.28,2.25-1.9,3.78.09.37.64.18.56-.19-.26-1.13.42-2.27,1.37-2.85.91-.55,2.01-.47,2.79.26.67.63,1.03,1.64.87,2.55-.17.94-.95,1.6-1.87,1.78-.59.12-1.2.03-1.75-.21.46,0,.49-.33.29-.44-.47-.28-1.02-.41-1.55-.54-.34-.09-.57.33-.4.6,1.39,2.18,5.17,1.86,5.96-.67.36-1.18-.05-2.51-.86-3.4Z"/><path class="cls-6" d="M117.16,6.9v59.06c0,3.55-2.87,6.42-6.42,6.42H15.32c-3.55,0-6.42-2.87-6.42-6.42V6.9C8.9,3.35,11.78.47,15.33.47h95.41c3.55,0,6.43,2.88,6.43,6.43Z"/><path class="cls-1" d="M49.88,30.36s-.18-.51-.53-.86c-.35-.35-.88-.54-.88-.54,0,0,.43-.05.88-.5.39-.39.53-.91.53-.91,0,0,.09.54.45.89.35.35.95.51.95.51,0,0-.48.06-.89.46-.4.41-.51.94-.51.94Z"/><rect class="cls-3" x="53.8" y="13.92" width="14.05" height="4.96"/><rect class="cls-3" x="69.9" y="13.92" width="17.47" height="4.96"/><rect class="cls-3" x="47.63" y="28.45" width="24.01" height="4.96"/><rect class="cls-3" x="43.29" y="39.32" width="20.67" height="4.96"/><rect class="cls-3" x="67.15" y="39.32" width="22.87" height="4.96"/><rect class="cls-3" x="27.73" y="51.86" width="27.44" height="4.96"/><rect class="cls-3" x="40.07" y="61.44" width="19.25" height="4.96"/><polygon class="cls-3" points="17.84 64.39 13.18 64.39 13.18 15.92 17.98 15.92 17.98 16.87 14.13 16.87 14.13 63.44 17.84 63.44 17.84 64.39"/><rect class="cls-2" x="17.84" y="61.44" width="19.25" height="4.96"/><rect class="cls-3" x="13.66" y="30.45" width="7.83" height=".95"/><rect class="cls-2" x="17.71" y="13.92" width="19.25" height="4.96"/><rect class="cls-2" x="17.98" y="28.45" width="13.79" height="4.96"/><path class="cls-1" d="M77.42,54.59c-.3,0-.27.46.03.46s.27-.46-.03-.46Z"/><path class="cls-1" d="M20.57,28.63c-.32,0-.28.49.03.49s.28-.49-.03-.49Z"/><rect class="cls-3" x="27.73" y="51.86" width="27.44" height="4.96"/><rect class="cls-3" x="53.96" y="61.44" width="24.01" height="4.96"/><rect class="cls-2" x="17.84" y="61.44" width="19.25" height="4.96"/><rect class="cls-5" x="17.71" y="13.92" width="26.62" height="4.96"/><rect class="cls-2" x="17.98" y="28.45" width="19.79" height="4.96"/><path class="cls-1" d="M81.27,54.04s-.34-.96-.99-1.62c-.65-.65-1.65-1.02-1.65-1.02,0,0,.81-.1,1.65-.94.73-.73.99-1.7.99-1.7,0,0,.18,1.01.84,1.68.66.66,1.79.96,1.79.96,0,0-.91.11-1.67.87-.76.76-.97,1.76-.97,1.76Z"/><path class="cls-1" d="M66.59,57.69s-.21-.61-.63-1.03c-.42-.41-1.05-.65-1.05-.65,0,0,.52-.06,1.05-.6.46-.46.63-1.08.63-1.08,0,0,.11.65.54,1.07s1.14.61,1.14.61c0,0-.58.07-1.06.55-.48.48-.62,1.12-.62,1.12Z"/><path class="cls-1" d="M18.58,47.04s-.16-.46-.47-.77c-.31-.31-.79-.49-.79-.49,0,0,.39-.05.79-.45.35-.35.47-.81.47-.81,0,0,.09.48.4.8.32.32.86.46.86.46,0,0-.43.05-.8.42-.36.36-.46.84-.46.84Z"/><path class="cls-1" d="M94.2,17.64c-1.22,0-1.09,1.89.12,1.89s1.09-1.89-.12-1.89Z"/><path class="cls-1" d="M97.02,36.93c-.72,0-.64,1.11.07,1.11s.64-1.11-.07-1.11Z"/><path class="cls-1" d="M117.16,8.72c0,.26-108.27.26-108.27.26C8.9,4.17,10.19.47,17.14.47h91.78c4.55,0,8.25,3.69,8.25,8.25Z"/><path class="cls-6" d="M110.74,72.86H15.32c-3.8,0-6.9-3.09-6.9-6.89V6.9c0-3.81,3.1-6.9,6.9-6.9h95.41c3.81,0,6.9,3.1,6.9,6.9v59.06c0,3.8-3.09,6.89-6.89,6.89ZM15.33.95c-3.28,0-5.96,2.67-5.96,5.96v59.06c0,3.28,2.67,5.95,5.95,5.95h95.42c3.28,0,5.95-2.67,5.95-5.95V6.9c0-3.28-2.67-5.96-5.96-5.96H15.33Z"/><path class="cls-7" d="M34.85,2.04c1.61,0,2.91,1.31,2.91,2.92s-1.3,2.91-2.91,2.91-2.91-1.3-2.91-2.91,1.3-2.92,2.91-2.92Z"/><path class="cls-5" d="M25.11,2.04c1.61,0,2.91,1.31,2.91,2.92s-1.3,2.91-2.91,2.91-2.91-1.3-2.91-2.91,1.3-2.92,2.91-2.92Z"/><path class="cls-2" d="M15.66,2.04c1.61,0,2.91,1.31,2.91,2.92s-1.3,2.91-2.91,2.91-2.91-1.3-2.91-2.91,1.3-2.92,2.91-2.92Z"/><path class="cls-6" d="M134.6,33.12c-.74,1.9-1.6,3.72-2.32,5.62-.37,1.01-1.91,1.47-2.91,1.41-1.28-.08-1.97-1.11-2.26-2.26-.4-1.6-.44-3.31-.7-4.94-.31-1.95-.73-3.89-1.42-5.75-.66-1.79-1.58-3.79-3.14-4.98-1.78-1.36-4.29-1.14-6.38-.86-2.01.27-4.03.78-5.94,1.47-2.96,1.07-5.99,3.01-7.09,6.1-.14.39-.24.79-.31,1.19-.05.28.75,7.5.39,7.57-.67.14-1.64-4.61-1.52-7.25.06-1.43.34-3.58.75-4.95.46-1.53,1.38-3.04,2.34-4.32,4.17-5.56,11.73-7.38,18.76-6.5,4.98.63,9.53,3.39,11.6,8.08,1.45,3.28,1.44,7.05.14,10.36Z"/><path class="cls-2" d="M203.14,103.13c-1.48,6.21-4.04,12.15-7.07,17.75-3.02,5.58-6.57,10.88-10.27,16.02-3.74,5.19-7.72,10.22-10.97,15.74-1.14,1.94-2.19,3.94-3.09,6.01-.07,2.12-.49,4.27-.84,6.31-.49,2.87-1.12,5.7-1.9,8.51-.76,2.72-1.65,5.41-2.68,8.04-.96,2.47-2.02,4.92-3.56,7.1-2.91,4.12-7.45,6.15-12.23,7.29-5.5,1.32-11.17,2.13-16.76,2.96-6.03.9-12.08,1.6-18.17,1.99-12.3.78-24.59-.06-36.81-1.53-12.27-1.48-24.48-3.4-36.7-5.16-10.33-1.5-21.47-3.13-29.97-9.73-7.27-5.66-12.4-15.3-9.38-24.56,2.85-8.74,11.56-14.24,20.2-16.01,5.63-1.16,11.41-1.06,17.12-.58,6.06.5,12.1,1.33,18.15,2.05,9.4,1.12,18.83,2.19,28.23,3.34,5.06-9.13,10.87-17.9,16.97-26.33.92-1.28,1.81-2.66,2.87-3.85.84-.95,1.86-1.14,3.1-1.15,3.61-.03,7.24,0,10.86,0,7.24,0,14.47,0,21.71,0h5.43c1.65,0,3.42.18,5.07-.05,1.66-.23,2.52-2.58,3.35-3.86.84-1.3,1.7-2.6,2.58-3.88,3.7-5.42,7.72-10.62,11.99-15.6,2.13-2.5,4.33-4.94,6.57-7.32,2.06-2.19,4.14-4.4,6.56-6.18,3.87-2.87,9.25-4.41,13.61-1.97.12.02.24.06.36.16.33.28.47.36.6.45,1.75,1.78,3.14,3.73,4.13,5.91,2.6,5.68,2.35,12.17.92,18.13Z"/><path class="cls-5" d="M227.83,73.84c.09,3.47-.74,7.4-2.75,10.26-2.06,2.92-5.59,4.07-8.99,4.5-3.85.49-7.81.43-11.68.17-2.91-.18-5.81-.49-8.67-.98-1.43.14-2.86.29-4.28.44-6.68.7-13.36,1.38-20.04,2.05-1.96,5.93-4.01,11.83-6.18,17.7-1.31,3.52-2.51,7.41-5.28,10.1-2.87,2.8-6.88,3.56-10.71,4.13-9.23,1.35-18.7.93-28,.95-4.62,0-9.23.11-13.85.02-1.92-.04-3.9-.23-5.63-1.14-1.51-.78-2.71-2.03-3.66-3.43-2.18-3.23-3.4-7.25-4.46-10.96-.49-1.72-.89-3.45-1.25-5.2-1.93,2.71-3.9,5.39-5.99,7.99-2.06,2.55-4.24,5.01-6.59,7.29-1.61,1.77-3.27,3.47-5.03,5.05-6.08,5.43-15.76,10.19-23.99,9.02-8.79-1.25-17.07-8.3-18.04-17.43-.79-7.41-.72-13.33-.83-20.78,0-.91-.03-1.8-.05-2.66,2.13.38,4.51.52,6.71.44,3.64-.16,7.2-1.12,10.55-2.5,4.28-1.76,8.73-4.13,11.63-7.75.03.23.08.47.11.7.12.78.24,1.55.37,2.29.09.51.17,1.01.26,1.51-.29-1.62,7.74-9.49,9.47-11.75,3.44-4.47,7.28-8.88,12.43-11.4,3.35-1.64,6.99-2.59,10.66-3.23,5.02,8.53,16.2,11.53,25.59,10.82,9.32-.71,18.76-4.18,25.83-10.38,3.23-2.83,5.97-6.17,7.87-9.99,1.11-.1,2.22-.13,3.34-.1,4.22.1,8.38.91,12.48,1.87,8.8,2.07,17.55,4.31,26.32,6.48,4.34,1.07,8.67,2.14,13.01,3.21,2.24.56,4.47,1.11,6.7,1.66,1.78.43,3.67.74,5.35,1.52.36.17.68.37.98.58.27.12.55.24.82.37,3.43,1.7,5.36,4.75,5.45,8.57Z"/><path class="cls-6" d="M117.4,204.35c-4.92.31-9.65,2.75-12.62,6.71-1.3,1.72-2.22,3.69-2.74,5.76-.98-2.5-1.62-5.07-2.33-7.65-.75-2.7-1.72-5.4-3.74-7.42-1.07-1.06-2.32-1.89-3.67-2.55,1.43-10.36,2.57-20.77,3.27-31.2,1.72.41,3.44.81,5.16,1.22,3.41,4.01,7.15,7.77,11.17,11.2.65.56,1.66,1.12,2.12,1.87.57.94.53,2.45.69,3.51l.88,6.02c.61,4.18,1.22,8.35,1.83,12.52Z"/><path class="cls-1" d="M116.59,146.58l-11.63-30.78c-.62-1.64-2.82-2.96-4.92-2.96h-53.78c-2.1,0-5.71,2.33-4.79,4.9.12.4,11.74,31.17,11.74,31.17.62,1.64,2.82,2.96,4.92,2.96h47.61l5.78.3c4.33-.3,5.67-3.96,5.06-5.59Z"/><path class="cls-6" d="M115.51,148.74l-11.63-30.78c-.62-1.64-2.82-2.96-4.92-2.96h-53.78c-2.1,0-5.71,2.33-4.79,4.9.12.4,11.74,31.17,11.74,31.17.62,1.64,2.82,2.96,4.92,2.96h47.61l5.78.3c4.33-.3,5.67-3.96,5.06-5.59Z"/><rect class="cls-6" x="56.35" y="150.93" width="76.67" height="7.59" rx="3.01" ry="3.01"/><path class="cls-1" d="M80.31,139.48c.86,2.37-.36,4.3-2.73,4.3s-5-1.92-5.86-4.3c-.86-2.37.36-4.3,2.73-4.3s5,1.92,5.86,4.3Z"/><path class="cls-2" d="M77.13,168.17c-1.22,7.73-2.12,15.57-3.82,23.22-.4,1.8-.89,3.59-1.5,5.36-.52,1.48-.95,3.25-2.01,4.51-1.08,1.3-2.7,1.23-4.32,1.08-2-.19-3.99-.42-5.99-.67-8.17-1.07-16.26-2.72-24.14-4.95-7.79-2.21-15.39-4.94-22.69-8.23-3.14-1.41-6.26-3-8.56-5.44-2.23-2.36-3.35-5.36-3.8-8.4-1.52-10.31,2.72-25.34,14.95-28.55.26-.14.53-.29.81-.42,7.07-3.18,15.29-.08,22.17,2.03,8.06,2.46,15.99,5.25,23.77,8.34,3.85,1.54,7.66,3.15,11.44,4.85,1.37.61,3.15,1.18,3.85,2.49.76,1.4.07,3.34-.16,4.79Z"/><path class="cls-4" d="M84.93,169.39c-.06,3.55-.41,7.12-.65,10.67-.38,5.51-.78,11.03-1.18,16.54-1.07-.18-2.12-.36-3.13-.54-3.22-.58-6.45-1.09-9.7-1.49-1.54-.19-3.09-.32-4.64-.47.04-1.46.1-2.93.16-4.4.31-7.39.82-14.78,1.44-22.15.17-2.01.36-4.02.55-6.03,5.64,1.32,11.28,2.63,16.92,3.95.08,1.34.26,2.68.24,3.93Z"/><path class="cls-3" d="M81.46,165.51c-.41,1.38-.83,2.76-1.24,4.14-2.88,9.67-5.76,19.32-8.64,28.99-.5,1.69-.73,4.51-2.7,5.14-.93.3-1.99.16-2.95.13l-3.67-.1c-2.51-.06-5.02-.13-7.54-.21-1.51-.04-3.58.02-4.36-1.59-.4-.81-.22-1.72-.04-2.56.25-1.18.51-2.36.77-3.54.54-2.42,1.1-4.84,1.66-7.26,1.12-4.83,2.32-9.65,3.64-14.44,1.2-4.4,2.29-8.94,3.99-13.18.59-1.5,1.42-3.15,2.56-4.41.47-.19.92-.23,1.43-.32.5-.1,1.03-.14,1.54-.15,3.59,1.03,7.15,2.14,10.72,3.25,1.73.53,4.45.93,5.12,2.93.36,1.07.02,2.15-.29,3.19Z"/><path class="cls-1" d="M95.55,168.01c-.7,10.43-1.84,20.84-3.27,31.2-2.81-1.39-6.1-2.06-9.2-2.61.41-5.5.8-11.02,1.18-16.54.24-3.54.59-7.11.65-10.67.02-1.24-.17-2.59-.24-3.93,3.62.84,7.25,1.69,10.87,2.54Z"/><path class="cls-5" d="M127.89,229.55c-.14.41-.52.45-.83.29-.24.41-.62.74-1.05.93-1.89,1.25-4.66,1.36-6.81,1.18-2.79-.23-5.52-1.24-7.87-2.74-4.41-2.82-7.36-7.43-9.24-12.23.47-2.22,1.39-4.2,2.69-5.91,2.97-3.96,7.7-6.4,12.62-6.71-.61-4.17-1.22-8.34-1.83-12.52l-.88-6.02c-.16-1.06-.12-2.57-.69-3.51-.46-.75-1.47-1.31-2.12-1.87-4.02-3.43-7.76-7.18-11.17-11.2,5.67,1.33,11.34,2.68,17.01,4.05.36.09.66.38.67.77.18,4.26.55,8.52,1.12,12.74,1.01,7.49,2.73,14.9,5.02,22.1,1.11,3.49,2.43,6.92,3.25,10.5.76,3.29,1.24,6.91.12,10.16Z"/><path class="cls-4" d="M146.62,50.79c-3.21,4.49-7.74,7.96-12.75,10.27-3.72,1.72-7.76,2.93-11.7,3.48-4.78.68-9.9.68-14.49-.99-3.09-1.12-5.69-2.84-7.86-5.09,5.69-.63,11.43-.82,17.13-1.27,4.87-2.78,9.46-6.24,11.26-11.77-2.93,1.5-5.89,2.71-8.77,4.01-1.43.65-2.86,1.32-4.29,1.98-.52-2.88-.92-5.11-.92-5.11,0,0,12.81-5.05,16.57-7.44.25-.16.54,0,.57.28.7,5.15,1.31,10.31,2.06,15.45,3.72-.99,7.36-2.24,11.08-3.24.71-.19,1.41-.37,2.12-.54Z"/><path class="cls-6" d="M128.2,45.41c-1.88,5.78-6.81,9.31-11.92,12.15-.38-2.04-.78-4.24-1.14-6.17,1.44-.65,2.87-1.33,4.29-1.98,2.88-1.3,5.83-2.51,8.55-4.14.1-.06.26.02.22.14Z"/><path class="cls-4" d="M132.95,32.95c-.17,1.4-.51,2.73-.99,4.01-.21,1.98-.63,3.92-1.37,5.78-.82,2.07-2.01,4.02-3.6,5.59-1.74,1.73-4.23,3.26-6.49,4.19-5.74,2.37-12.74.24-15.58-5.44-.81-1.62-1.12-3.39-1.5-5.14-.4-1.89-.45-3.73-.96-5.59-3.06-11.26,8.1-23.42,19.42-20.7,3.59.86,6.64,3.23,8.61,6.31,2.1,3.27,2.9,7.14,2.45,10.99Z"/><path class="cls-6" d="M134,26.64c-.27-1.7-1.09-3.07-2.22-4.47-.91-1.52-2.17-2.65-3.61-3.72-.91-.66-1.78-1.14-2.73-1.48-1.25-.75-2.59-1.41-4.01-1.79-1.78-.49-3.67-.34-5.48-.03-3.03.5-5.88,1.74-8.26,3.68-2.51,2.04-4.5,4.75-5.49,7.84,4.28.78,8.27.42,12.08-.59,1-.26,1.99-.57,2.97-.94.48-.18.97-.37,1.45-.58.31-.13.94-.59,1.3-.47.17.05.53.69.66.84.3.33.61.64.95.93.44.36.91.65,1.41.93-.69,1.01-1.27,1.95-1.11,3.33.19,1.69.77,3.32,1.63,4.77.51.87.91,1.69,1.08,2.69.16.89.2,1.8.48,2.66.33,1.01,1.47,2.04,2.31.77.15-.22.23-.48.28-.74.36-1.31.76-2.29,1.93-2.68.52-.17,1.05-.19,1.59-.14.7.09,1.19.19,1.66.29.27.05.34-.33.1-.41.17-1.89.42-3.68.69-5.47.13-.88.25-1.76.33-2.65.07-.79.26-1.8.02-2.56Z"/><path class="cls-1" d="M108.83,40.44c-.02.48-.38.91-.85,1.03-.5.13-1.03-.1-1.37-.49-.17-.19-.29-.43-.35-.68-.03-.16-.04-.33-.04-.49.27-.52.51-.57.74-.57.3,0,.63.02.91.11.48.15.96.55.95,1.09Z"/><path class="cls-1" d="M119.3,38.86c.06.3-.16.64-.34.86-.4.51-1.04.79-1.67.8-.33,0-.67-.04-.97-.17-.3-.13-.5-.39-.59-.7-.09-.29-.13-.63-.06-.92.06-.23.26-.49.5-.42.32-.31.92-.27,1.34-.26.39,0,.9.05,1.17.34.27.08.56.19.62.46Z"/><path class="cls-6" d="M107.8,41.21c.02-.61-.29-1.2-.76-1.57-1.3-1.03-1.19,1.17-.61,1.79.3.32,1.34.36,1.36-.22Z"/><path class="cls-6" d="M117.3,38.97c-.25-.26-.85-.65-1.19-.42-.49.32-.2,1.48.08,1.86.45.61,1.21.35,1.42-.39.11-.39-.05-.78-.31-1.05Z"/><path class="cls-6" d="M120.13,35.11c-1.09-.05-2.2-.1-3.28.08-.48.08-.94.21-1.38.4-.37.15-.76.43-1.17.26-.91-.37-.12-1.48.37-1.85.76-.56,1.72-.57,2.6-.37.62.12,1.19.35,1.8.53.31.09.74.11,1.01.31.15.11.62.66.07.64Z"/><path class="cls-7" d="M108.48,43.6c.05-.19.2-.36.3-.53.11-.2.21-.41.3-.63.3-.78.43-1.64.31-2.47-.22-1.54-1.15-2.88-2.53-3.6-.17-.09-.35.18-.19.29,1.42.95,2.31,2.58,2.15,4.31-.04.44-.15.87-.31,1.27-.16.4-.45.72-.62,1.11-.3.65.43,1.47.9,1.84.32.25.73-.23.41-.48-.28-.22-.82-.71-.71-1.1Z"/><path class="cls-6" d="M107.64,37.01c-.14.1-.33.05-.49.02-.19-.03-.39-.09-.58-.15-.4-.12-.79-.27-1.19-.38-.39-.11-.8-.2-1.21-.18-.42.02-.79.22-1.2.23-.3-.57-.06-.99.3-1.06.51-.31,1.18-.42,1.75-.45.71-.03,1.52-.07,2.13.34.27.18.5.45.61.77.09.24.14.71-.11.88Z"/><path class="cls-1" d="M117.25,46.04c-.57,1.26-1.59,2.53-3.36,2.75-1.44.18-2.86-.59-3.24-1.72.6-.4,1.11-.49,1.59-.58.54-.1,1.1-.18,1.64-.28.53-.09,1.06-.17,1.58-.25.29-.04.58-.08.85-.13.24-.04.48-.12.69-.01.15-.04.32.06.25.2Z"/><path class="cls-6" d="M119.51,38.56c-.36-.28-.74-.55-1.17-.72-.48-.18-.97-.18-1.47-.12-.44.05-.98.14-1.3.48-.27.29-.41.71-.29,1.1.05.15.26.1.26-.05,0-.35.26-.57.54-.74.32-.19.71-.23,1.07-.26.37-.03.73,0,1.07.14.34.15.64.37.93.59.28.21.64-.2.36-.42Z"/><path class="cls-6" d="M108.77,39.88c-.22-.32-.6-.56-.94-.73-.34-.17-.73-.28-1.11-.22-.33.05-.64.18-.89.4-.25.22-.34.51-.28.83.82-.59,1.06-.66,1.29-.66.27,0,.56.1.8.22.29.15.53.38.83.51.21.09.44-.15.3-.35Z"/><path class="cls-4" d="M133.85,38.47c0,2.23-1.81,4.04-4.04,4.04s-4.04-1.81-4.04-4.04,1.81-4.04,4.04-4.04,4.04,1.81,4.04,4.04Z"/><path class="cls-7" d="M131.15,36.33c-.24-.27-.4-.26-.54-.18-1.29.7-2.5,1.56-3.72,2.37-.25.17-.25.6.05.72.59.24,1.19.43,1.78.63.3.11.61.21.92.31.29.09.61.24.92.25.28,0,.44-.43.2-.59-.25-.17-.6-.24-.89-.34-.29-.1-.57-.2-.85-.31-.34-.12-.67-.26-1-.4,1.02-.65,2.04-1.3,2.99-2.04.13-.1.19-.25.14-.41Z"/><path class="cls-6" d="M180.97,188.76c-.49.33-.97.68-1.44,1.05-4.21,3.25-7.49,7.7-9.17,12.74-.37,1.11-.65,2.23-.85,3.38-7.14-.11-14.29-.23-21.43-.33.08-6.25-3.33-12.44-8.59-15.75,1.29-4.11,2.59-8.21,3.88-12.32,9.42.27,18.84.24,28.26-.1-.18.51-.35,1.03-.48,1.55-.63,2.46-.48,5.18,1.71,6.84,1.86,1.41,4.35,1.68,6.51,2.35.56.17,1.1.37,1.62.6Z"/><path class="cls-4" d="M185.04,148.29c.22.57-.45.91-.87.66-1.96,4.98-4.15,9.88-6.33,14.76-.8,1.8-1.61,3.59-2.44,5.37-9.61-.41-19.2-1.05-28.79-1.86.23-.71.45-1.44.68-2.15,3.11-9.84,6.1-19.73,9.54-29.47.05-.14.29-.05.25.09-.28,1-.56,1.99-.85,3,1.03-1.5,2.61-2.64,4.32-3.32,3.49-1.38,7.51-1.06,11.14-.41,3.44.61,6.55,1.94,8.84,4.65,1.76,2.08,2.9,4.6,3.9,7.12.27-.57.52-1.13.8-1.69.12-.24.45-.06.37.18-.28.76-.57,1.51-.87,2.26.1.27.21.53.31.8Z"/><path class="cls-1" d="M175.4,169.08c-.42.93-.84,1.85-1.28,2.78-.86,1.83-1.83,3.65-2.51,5.56-9.41.33-18.84.37-28.26.1,1.09-3.43,2.17-6.87,3.26-10.3,9.59.82,19.18,1.45,28.79,1.86Z"/><path class="cls-2" d="M212.55,102.45c-2.43,5.84-5.08,11.61-7.69,17.37-5.32,11.74-10.83,23.39-16.53,34.95-.12.24-.36.34-.63.31-12.37-1.25-24.72-2.57-37.1-3.75-.32-.03-.51-.4-.46-.69,2.14-11.77,6.53-22.99,11.03-34.03,4.09-10.03,7.48-21.47,14.54-29.9,3.34-3.99,7.72-6.91,12.75-8.29,8.82-2.41,20.74-.2,25.16,8.74,2.46,4.98.94,10.43-1.07,15.27Z"/><path class="cls-4" d="M160.35,76.31c-2.26-2.05-5.66-1.84-8.36-.74-2.66.17-5.35.46-8.02.87-4.65.73-9.12,1.78-13.4,3.21-6.18,2.08-12.13,5.24-16.93,9.89-2.02,1.97-5.75,5.35-5.31,8.58.37,2.73,3.09,3.24,5.2,1.4,1.15-1,2.93-2.5,4.02-3.59,1.23-1.25,2.7-2.44,4.12-3.42,1.27-.87,2.17-.92,3.53-1.59-1.17,1.37-2.23,2.85-3.16,4.42-1.27,2.17-2.28,4.52-3.01,6.96-.33,1.09-.6,2.21-.81,3.35-.2,1.13-.49,2.39-.26,3.53.45,2.2,2.82,2.49,4.36,1.36.51-.37.97-.84,1.38-1.36.13.55.3.86.5,1.12.7,1.69,2.26,2.3,3.76,1.44,1.56-.9,2.7-2.5,3.61-4.12-.45.95-.86,2.1-.53,3.17.67,2.13,3.24,1.92,4.64.8,1-.8,1.75-1.93,2.51-2.96.9-1.21,1.79-2.44,2.7-3.65.99-1.34,2.01-2.65,3.09-3.92.72-.35,1.4-.55,2.07-.72,1.83-.46,3.65-.96,5.44-1.6,2.95-1.06,6.07-2.29,8.34-4.64,2.25-2.3,2.99-5.52,2.98-8.73,0-2.95-.14-6.99-2.44-9.06Z"/><path class="cls-1" d="M159.74,93.61c-2.62,2.18-5.71,3.59-8.92,4.68-1.61.54-3.24,1.01-4.88,1.46-1.55.43-2.53.79-3.5,2.11-1.11,1.52-2.21,3.04-3.31,4.56-1.05,1.44-2.02,3.03-3.23,4.35-.59.64-1.29,1.2-2.17,1.31-1.28.16-2.17-.63-2.22-1.89-.07-1.68.92-3.45,1.54-4.96.81-1.97,1.65-3.93,2.54-5.87.85-1.86,1.96-3.73,2.54-5.69.05-.16-.19-.26-.28-.14-1.25,1.62-2.05,3.67-2.9,5.51-.89,1.93-1.75,3.89-2.56,5.86-.25.6-.64,1.44-.98,2.36-.78.91-1.43,1.91-2.38,2.68-.96.77-2.48,1.75-3.76,1.19-2.82-1.23-.34-5.88.37-7.75.88-2.34,1.84-4.65,3.02-6.85.62-1.16,1.31-2.28,2.07-3.36.68-.96,1.59-1.84,2.16-2.86.11-.19-.14-.35-.3-.26-1.26.74-2.27,2.27-3.08,3.46-.88,1.3-1.66,2.66-2.36,4.07-1.44,2.87-2.74,5.93-3.74,8.98-.25.76-.37,1.67-.31,2.55-.67.74-1.03,1.3-1.75,1.53-.85.28-1.84-.06-2.37-.78-.79-1.09-.45-2.65-.19-3.86.55-2.58,1.36-5.1,2.46-7.51,2.16-4.73,5.4-8.94,9.82-11.71-2.35.12-4.37,2-5.94,3.87-3.03.92-5.69,2.52-8.02,4.67-1.26,1.17-2.37,2.47-3.59,3.68-.66.65-1.49,1.42-2.47,1.49-1.11.08-1.94-.82-2.21-1.82-.94-3.45,2.55-6.79,4.87-8.76,2.56-2.18,5.32-4.13,8.22-5.82,4.47-2.6,9.18-4.6,14.18-5.93,2.41-.64,4.85-1.2,7.32-1.6,4.75-.78,9.57-1.04,14.37-.81.59.03.53-.89-.06-.92-4.94-.24-9.89.05-14.77.87-2.62.44-5.41.9-7.89,1.85-4.18,1.6-8.41,3.05-12.36,5.18-3.74,2.02-6.83,4.63-10.2,7.16-2.34,2.08-5.12,5.2-4.54,8.62.22,1.32,1.13,2.57,2.52,2.77,1.51.22,2.78-.86,3.77-1.87,1.67-1.71,3.23-3.5,5.14-4.95,1.44-1.09,3.03-1.94,4.71-2.57-.11.15-.22.29-.33.43-1.98,2.65-3.51,5.62-4.61,8.73-.55,1.55-1,3.14-1.35,4.75-.29,1.37-.56,2.89.1,4.19,1.04,2.07,4.3,2.27,5.38.27.37,1.13,1.2,1.99,2.7,1.99,1.63,0,3.52-1.12,4.76-2.57-.14,1.34.21,2.53,1.68,3.03,3.3,1.11,5.63-3.56,7.15-5.63,1.28-1.75,2.48-3.63,3.87-5.29.68-.81,1.57-.98,2.54-1.25.93-.26,1.87-.52,2.8-.79,4.07-1.2,8.09-2.74,11.38-5.48.41-.34-.05-1.04-.47-.69Z"/><path class="cls-5" d="M225.87,69.16c-1.91-2.79-5.73-4.53-8.82-5.56-8.81-2.91-18.12-1.06-26.95.75-2.03.57-3.81.69-5.59.54-1.88-.17-3.74-.78-5.64-.58-3.23.33-5.84,2.51-8.52,4.14-.93.57-1.95,1.28-3.09,1.11-.78-.11-1.51-.55-2.28-.76-1.01-.27-2.07-.3-3.11-.12-1.95-.11-3.96,1.08-5.5,2.14-1.12.77-2.37,1.67-3.2,2.76-.51.67-.56,1.46-.47,2.27.16,1.09.2,1.31.23,1.52.92,6.43,2.32,12.9,4.64,18.97.08.21.28.3.5.24,1.99-.49,3.93-1.1,5.81-1.84,3.03-.43,6.06-.83,9.12-1.07,4.25-.33,8.51-.51,12.77-.68,8.46-.32,16.96-.6,25.3-2.24,3.42-.67,6.98-1.45,9.98-3.31,2.91-1.8,4.62-4.55,5.29-7.88.37-1.79.51-3.67.6-5.49.08-1.71-.06-3.47-1.04-4.91Z"/><path class="cls-3" d="M195.03,143.48c-.25-.92-1.48-.37-3.35-.43-2.36-.07-4.77-.52-7.11-.78-8.07-.88-16.14-1.94-24.25-2.35-1.82-.1-5.43-.55-8.03.15-1.74,4.1-3.07,8.4-4.14,12.72-.4,1.64-1.14,3.75,1.14,4.09,2.67.4,5.43.54,8.12.74,5.19.4,10.38.65,15.59.76,2.71.06,5.43.07,8.14.05,1.29-.02,2.58-.04,3.86-.06,1.03-.03,2.21.05,3.11-.53.82-.54,1.26-1.51,1.72-2.33.7-1.25,1.37-2.52,2.01-3.8.94-1.88,2.61-4.47,3.08-6.66.17-.76.2-1.26.11-1.58Z"/><path class="cls-5" d="M195.34,207.85c0-5.25.08-9.19-3.57-13.4-1.2-1.39-2.61-2.56-4.21-3.45-.18-.1-.36-.19-.54-.28-1.73-1.08-3.71-1.79-5.75-1.93-.79.3-1.28.65-1.75,1.01-4.21,3.25-7.49,7.7-9.17,12.74-.37,1.11-.65,2.23-.85,3.38-7.14-.11-14.29-.23-21.43-.33.08-6.25-3.33-12.44-8.59-15.75-.54,1.71-1.07,3.41-1.61,5.12-.86,2.77-1.73,5.54-2.6,8.31-.45,1.45-1.14,3.72.64,4.56.29.16.12.18-.04.22,1.75.51,3.69.36,5.46.37,1.96,0,3.91.03,5.86.04,3.9.03,7.8.04,11.71.05,7.73.02,15.47.05,23.2.05,3.99,0,8.04.17,12.03-.09.35-.02.69-.04,1.04-.08.44-.03.51-.52.18-.55Z"/><path class="cls-1" d="M192.15,61.12c-2.59,1.84-5.9.68-8.8.47-2.86-.21-5.51.64-7.95,2.11-1.28.78-2.46,1.69-3.61,2.64-1.32,1.09-2.67,2.19-4.48,1.73-1.4-.35-2.63-1.01-4.1-1.09-1.48-.08-2.98.25-4.33.85-2.75,1.21-4.94,3.45-6.7,5.86-.21.27-.4.54-.58.82-.08.1-.16.22-.23.32-.37.61-.63.65-.89.66.37.24.77.3,1.15.19.38-.11.74-.36.98-.67.27-.35.51-.74.76-1.11.15-.23.31-.45.47-.68,1.58-1.7,3.23-3.34,5.4-4.29,1.49-.65,3.15-.98,4.77-.67,1.39.26,2.64,1.08,4.08,1.12,2.84.1,5.04-2.76,7.23-4.2,2.73-1.78,5.57-2.66,8.84-2.3,2.86.32,6.15,1.14,8.64-.79.59-.45-.03-1.4-.64-.97Z"/><path class="cls-4" d="M59.45,53.6c-.04,4.7-.65,9.63-2.3,14.06-.06.17-.33.07-.29-.1-.2.33-.45.72-.71,1.08-.58.86-1.31,1.62-2.12,2.26-1.29,1.04-2.97,1.86-4.67,2.06-1.74.74-3.58.46-5.17.44-1.42-.02-2.86-.05-4.27-.27-2.55-.4-4.81-1.54-6.51-3.51-2.54-2.95-3.66-7-4.38-10.94-.91-.29-1.76-.8-2.43-1.47-1.88-1.88-2.31-4.61-2.39-7.15-.1-2.72-.13-5.62,1.94-7.66.89-.89,1.99-1.51,3.23-1.77.62-.13,1.18-.12,1.72-.03.54-.87,1.2-1.65,1.97-2.26.96-.75,2.12-1.14,3.33-1.03.43.03.82.13,1.19.25.17-.21.36-.43.55-.62,1.26-1.3,3.13-2.53,5.02-2.3.81.1,1.6.39,2.36.79-.09-1.2-.19-2.4-.33-3.61-.12-.99-.26-1.99-.41-2.98-.53-1.65-1.11-3.26-1.78-4.84-.78-1.85-1.82-3.93-1.52-6.09.24-1.76,1.51-2.92,2.96-3.22,3.79-.78,6.64,3.17,7.96,6.8,1.66,4.55,2.76,8.61,3.47,13.48.44,2.95.56,6.92.72,9.89.73.76,1.37,1.6,1.82,2.54.93,1.92,1.05,4.07,1.03,6.17Z"/><path class="cls-1" d="M86.36,32.73s-.65-1.86-1.91-3.12-3.18-1.97-3.18-1.97c0,0,1.56-.19,3.18-1.81,1.41-1.41,1.91-3.28,1.91-3.28,0,0,.34,1.96,1.63,3.24,1.29,1.28,3.47,1.85,3.47,1.85,0,0-1.75.22-3.22,1.68s-1.87,3.41-1.87,3.41Z"/><path class="cls-4" d="M60.78,81.1c-2.9,3.62-7.34,5.99-11.63,7.75-3.35,1.38-6.91,2.34-10.55,2.5-2.2.09-4.59-.05-6.72-.78-.17-6.97-.54-12.65.3-19.98-.04-1.66,0-3.13.31-4.59.6-2.87,2.51-5.09,5.09-7.11,2.6-2.05,5.44-4.27,8.8-5.35,2.77-.9,6.02-.93,8.32.48,2.34,1.44,2.14,5.77,2.7,8.08,1.38,5.75,2.39,12.82,3.36,19Z"/><path class="cls-1" d="M49.81,71.8c-1.2-.29-2.11-1.05-2.73-1.54-.76-.6-1.39-1.31-1.9-2.12-1.04-1.65-1.56-3.61-1.85-5.52-.31-2.04-.38-4.1-.7-6.13-.21-1.34-.4-3.53-1.7-4.28.47,1.12.47,2.51.62,3.62.15,1.15.22,2.31.33,3.47.19,2.13.39,4.27,1.01,6.32.54,1.79,1.41,3.5,2.75,4.82.7.7,1.53,1.26,2.38,1.76.61.36,1.25.87,1.85.27.19-.19.12-.5-.05-.67Z"/><path class="cls-1" d="M45.53,34.79c-2.55-.33-5.68-.6-7.52,1.6-.9,1.08-1.05,2.54-1.15,3.89-.1,1.47-.12,3.16.38,4.57.1.29.52.2.52-.1-.02-.69-.14-1.37-.18-2.06-.03-.66-.04-1.32,0-1.98.06-1.25.14-2.75.95-3.77,1.63-2.04,4.58-1.7,6.86-1.4.48.06.63-.68.15-.74Z"/><path class="cls-1" d="M40.37,53.05c-1.78,1.57-4.53,2.53-6.58.84-1.85-1.53-2.58-4.37-2.89-6.65-.3-2.2-.72-5.15.6-7.09.66-.97,1.66-1.68,2.75-2.09.65-.24,1.35-.38,2.04-.46.52-.07,1.09.03,1.57-.18-.88-.99-2.86-.59-3.91-.24-1.2.41-2.33,1.13-3.1,2.15-1.71,2.27-1.3,5.65-.9,8.27.39,2.57,1.32,5.81,3.63,7.34,2.37,1.56,5.34.65,7.31-1.1.45-.4-.07-1.2-.54-.8Z"/><path class="cls-1" d="M34.89,55.17c-1.03,2.11-3.3,3.97-5.77,3.21-2.62-.81-3.75-3.64-4.34-6.07-.63-2.55-.81-5.44.43-7.84,1.13-2.18,3.33-3.53,5.75-3.78-1.99-.83-4.03.15-5.41,1.61-1.63,1.73-2.26,4.1-2.26,6.44,0,4.11,1.84,10.91,7.03,10.87,2.46-.02,4.5-1.87,5.53-3.98.3-.61-.66-1.08-.96-.46Z"/><path class="cls-1" d="M57.07,44.56c0,.17,0,.33-.02.49-.27.03-.53-.04-.78-.11,0-.24.02-.49.03-.73.1-4.13-.43-8.24-1.18-12.3-.72-3.99-1.69-7.76-3.58-11.36-1.47-2.8-4.28-7.24-8.09-5.3-3.87,1.95-.6,7.66.42,10.43,1.12,3.04,2.24,6.59,1.6,9.86-.35-2.55-.7-4.96-1.5-7.38-.74-2.25-1.7-4.41-2.47-6.63-1.01-2.91-.79-6.75,2.91-7.38,3.62-.62,5.97,2.68,7.48,5.44,2.09,3.81,3.19,7.8,3.97,12.06.8,4.27,1.36,8.58,1.21,12.91Z"/><path class="cls-1" d="M65.29,107.3c-1.11-3.55-1.65-7.22-2.12-10.9-.46-3.57-.89-7.14-1.36-10.7-.47-3.57-.96-7.13-1.54-10.68-.29-1.81-.61-3.62-.95-5.42-.21-1.11-.7-2.17-.79-3.31-.09-1.27.53-2.63.78-3.88.68-3.44,1.12-6.97.82-10.48-.16-1.87-.47-3.81-1.48-5.42-.38-.6-.93-1.27-1.58-1.75-.25-.35-.51-.46-.77-.56-2.59-1.07-5.57-1.13-8.33-1.29-3.03-.17-6.14-.2-9.08.64-2.51.72-5.39,2.22-6.35,4.83-.71,1.96.06,4.58,2.26,5.16,1.76.46,3.72-.37,5.48-.51,2.12-.18,4.22,0,6.29.51.54.13.7-.71.16-.84-1.74-.43-3.51-.64-5.3-.59-1.85.04-3.64.69-5.47.71-1.97.03-3.13-1.72-2.77-3.58.33-1.72,1.84-2.98,3.3-3.79,3-1.66,6.55-1.86,9.9-1.77,3.34.1,6.68.35,9.89,1.24.44.24.69.44.91.7.55.65.91,1.42,1.17,2.22.58,1.79.84,3.67.89,5.54.07,2.34-.23,4.67-.61,6.97-.26,1.58-.8,3.12-.86,4.73-.07,1.67.5,3.35.81,4.98.34,1.8.65,3.61.94,5.42.58,3.62,1.08,7.26,1.55,10.9.91,7.03,1.28,14.39,3.48,21.17.16.49.91.24.75-.25Z"/><path class="cls-1" d="M153.38,49.68c-1.91,3.82-4.64,7.16-7.87,9.99-7.07,6.2-16.51,9.67-25.83,10.38-9.4.71-20.57-2.28-25.59-10.82,1.24-.22,2.47-.39,3.72-.55.15-.03.29-.04.44-.05.52-.06,1.04-.12,1.57-.17,2.18,2.26,4.77,3.97,7.86,5.09,4.59,1.67,9.71,1.67,14.49.99,3.95-.56,7.99-1.77,11.7-3.48,5.01-2.31,9.54-5.77,12.75-10.27.91-.22,1.81-.41,2.73-.57.23-.05.47-.09.7-.13,1.11-.18,2.22-.33,3.34-.41Z"/><path class="cls-1" d="M161.1,96.26c-.63.25-1.42.29-2.08.44-.66.14-1.32.33-1.99.44-.97.16-1.49-.24-1.82-1.12-.49-1.31-.82-2.72-1.2-4.06-.78-2.79-1.52-5.57-2.36-8.34-.46-1.54-.97-3.07-1.52-4.58-.41-1.12-1.12-2.32-1.37-3.5-.17-.81.25-1.42.97-1.79.49-.25,1.04-.33,1.51-.63.53-.34.88-.9,1.31-1.33.65-.66,1.53-1.25,2.51-1.01.23.06.43.16.6.28.33.1.62.37.82.73.35.64.47,1.44.69,2.14.24.8.51,1.58.76,2.39,1.75,5.76,2.91,11.75,3.9,17.69.16.93.34,1.85-.71,2.25Z"/><path class="cls-1" d="M60.28,84.31c-1.1.98-2.61,1.59-3.91,2.26-1.29.65-2.58,1.29-3.88,1.91-5.52,2.59-11.49,4.65-17.65,4.61-1,0-2.77.22-3.46-.71-.68-.92-.37-2.8-.4-3.87-.04-1.37-.31-2.97-.04-4.31.1-.52.37-.96.82-1.08.35-.56,1.1-.7,1.82-.78,1.56-.17,3.13-.26,4.68-.43,3.36-.37,6.71-.95,9.94-1.97,3.03-.96,5.75-2.39,8.43-4.06.73-.45,2.36-1.92,3.31-1.29.72.49.66,2.08.78,2.84.37,2.17,1.49,5.15-.44,6.89Z"/><path class="cls-1" d="M116.06,57.54c-.53.47-1.36.41-2.02.44-1.12.05-2.24.07-3.35.16-19.54,1.52-28.89,2.42-38.86,14.72-.32.03-.53.06-.75.09,1.55-2.59,3.56-4.85,5.92-6.75,5.3-4.28,11.83-6.45,18.48-7.55,3.75-.62,7.54-.92,11.33-1.13,2.08-.11,4.16-.19,6.23-.29.48-.02,1.24.1,1.68-.08.42-.16.94-.64.96-1.03,0-.16-.1-.39-.15-.55-.16-.55-.31-1.07-.3-1.66,0-.47.72-.51.73-.05,0,1.13,1.19,2.74.11,3.69Z"/><path class="cls-1" d="M119.48,13.97c-1.83-.25-3.82.16-5.6.56-1.97.44-3.84,1.14-5.6,2.13-3.33,1.88-6.11,4.83-7.43,8.45-1.45,3.98-.47,7.63.63,11.56.66,2.36,1.32,4.73,1.98,7.09.53,1.92.96,3.96,2.16,5.59,2.16,2.94,6.46,4.55,10,4.72.48.02.45-.67.05-.79-3.14-.91-6.44-1.29-8.76-3.87-1.28-1.43-1.75-3.25-2.24-5.06-.56-2.06-1.11-4.13-1.67-6.19-1.01-3.73-2.48-7.58-1.45-11.46.91-3.44,3.27-6.38,6.21-8.32,1.75-1.16,3.7-1.98,5.69-2.63,1.99-.65,4.08-.83,6.07-1.45.16-.05.15-.31-.02-.33Z"/><path class="cls-1" d="M99.56,44.92c-.31,0-.28.48.03.48s.28-.48-.03-.48Z"/><path class="cls-1" d="M32.66,67.75c-.14-.28-.34-.44-.55-.66-.46-.47-.67-.89-.9-1.51-.88-2.31-1.41-4.8-2.51-7.02-.11-.22-.49-.2-.47.09.23,2.31,1.12,4.62,1.89,6.8.3.84.6,1.46,1.12,2.17.48.67.62.95.59,1.75-.02.56-.04,1.13-.06,1.69-.19,5.08-.38,10.15-.57,15.23-.02.62.93.55.95-.06.2-5.16.4-10.31.6-15.47.04-.91.33-2.16-.09-3.02Z"/><path class="cls-1" d="M18.85,37.11c-.05-.15-.14-.28-.26-.39-.33-.19-.48-.22-.63-.21-.73,1.32-.65,1.45-.52,1.56.33.19.48.22.64.21.82-1.02.8-1.09.79-1.17Z"/><path class="cls-1" d="M68.31,23.13c-.95,0-.85,1.48.09,1.48s.85-1.48-.09-1.48Z"/><path class="cls-1" d="M92.55,55.56c-.21,0-.18.32.02.32s.18-.32-.02-.32Z"/></g></svg>